# xmcd
#
# Track frame offsets: 
#        150
#        9500
#        13242
#        19282
#        26909
#        30384
#        35049
#        40473
#        47026
#        52381
#        61072
#        69431
#        75172
#        80815
#        87483
#        92747
#        98824
#        115376
#        124335
#        131679
#        136333
#        144834
#        151221
#        156071
#        164714
#        169092
#        178780
#        186649
#        193261
#        201212
#        207838
#        214576
#        225147
#
# Disc length: 3184 seconds
#
# Revision: 0
# Processed by: cddbd v1.5.2PL0 Copyright (c) Steve Scherf et al.
# Submitted via: ExactAudioCopyFreeDBPlugin 1.0
#
DISCID=d70c6e21
DTITLE=Various Artist - Montana Old Time Fiddlers - Choteau Champions
DTITLE=2017
DYEAR=2017
DGENRE=Old-Time
TTITLE0=Isaac Callender - Snowshoes (Dance Division)
TTITLE1=Naiyah Negron - Whiskey before Breakfast (Small Fry)
TTITLE2=Naiyah Negron - Dreamer's Waltz (Small Fry)
TTITLE3=Naiyah Negron - Florida Blues (Small Fry)
TTITLE4=Bronte Bennion - Liberty (Junior Junior)
TTITLE5=Bronte Bennion - Danny Boy (Junior Junior)
TTITLE6=Bronte Bennion - Jerusalem Ridge (Junior Junior)
TTITLE7=Cadhla Morris - Ostinelli's Reel (Junior)
TTITLE8=Cadhla Morris - Nancy's Waltz (Junior)
TTITLE9=Cadhla Morris - Black and White Rag (Junior)
TTITLE10=Infinity Thomson - Dusty Miller (Adult)
TTITLE11=Infinity Thomson - Over the Waves (Adult)
TTITLE12=Infinity Thomson - Allen Town Polka (Adult)
TTITLE13=Fred Buckley - Soldier's Joy (Senior)
TTITLE14=Fred Buckley - Ben Setran's Waltz (Senior)
TTITLE15=Fred Buckley - Red River Blues (Senior)
TTITLE16=Louise Steinway and Isaac Callender - Faded Love (Twin Fiddle)
TTITLE17=Kelly Buckley - Sally Goodin' (Championship 5th Place)
TTITLE18=Kelly Buckley - Beautiful Days (Championship 5th Place)
TTITLE19=Kelly Buckley - New Camptown Races (Championship 5th Place)
TTITLE20=Grace Christensen - Say Old Man (Championship 4th Place)
TTITLE21=Grace Christensen - Velvets Waltz (Championship 4th Place)
TTITLE22=Grace Christensen - Cottonpatch Rag (Championship 4th Place)
TTITLE23=Isaac Callender - Sally Goodin' (Championship 3rd Place)
TTITLE24=Isaac Callender - Angel's Waltz (Championship 3rd Place)
TTITLE25=Isaac Callender - Beaumont Rag (Championship 3rd Place)
TTITLE26=Shelby Rae Murdock - Cattle in the Cane (Championship 2nd Pla
TTITLE26=ce)
TTITLE27=Shelby Rae Murdock - Portneuf Waltz (Championship 2nd Place)
TTITLE28=Shelby Rae Murdock - I Don't Love Nobody (Championship 2nd Pl
TTITLE28=ace)
TTITLE29=Taylor Buckley - Frisbee Hornpipe (Montana State Champion)
TTITLE30=Taylor Buckley - Gardenia Waltz (Montana State Champion)
TTITLE31=Taylor Buckley - Stompin' at the Decca (Montana State Champio
TTITLE31=n)
TTITLE32=Louise Steinway - Edelweiss (Entertainment Winner)
EXTD=
EXTT0=
EXTT1=
EXTT2=
EXTT3=
EXTT4=
EXTT5=
EXTT6=
EXTT7=
EXTT8=
EXTT9=
EXTT10=
EXTT11=
EXTT12=
EXTT13=
EXTT14=
EXTT15=
EXTT16=
EXTT17=
EXTT18=
EXTT19=
EXTT20=
EXTT21=
EXTT22=
EXTT23=
EXTT24=
EXTT25=
EXTT26=
EXTT27=
EXTT28=
EXTT29=
EXTT30=
EXTT31=
EXTT32=
PLAYORDER=
